{
    "asset" : {
        "generator" : "Khronos glTF Blender I/O v1.7.33",
        "version" : "2.0"
    },
    "scene" : 0,
    "scenes" : [
        {
            "name" : "Scene",
            "nodes" : [
                0,
                1
            ]
        }
    ],
    "nodes" : [
        {
            "mesh" : 0,
            "name" : "Yamaha HS5 R",
            "scale" : [
                15.067544937133789,
                15.067544937133789,
                15.067544937133789
            ],
            "translation" : [
                0,
                2.4474713802337646,
                0
            ]
        },
        {
            "mesh" : 1,
            "name" : "Text",
            "rotation" : [
                -0.7071068286895752,
                0,
                0,
                -0.7071068286895752
            ],
            "translation" : [
                -1.9213411808013916,
                5.198184013366699,
                -0.5716062784194946
            ]
        }
    ],
    "materials" : [
        {
            "doubleSided" : true,
            "name" : "Matte Black.001",
            "pbrMetallicRoughness" : {
                "baseColorFactor" : [
                    0.3362969756126404,
                    0.08918363600969315,
                    0.030866015702486038,
                    1
                ],
                "metallicFactor" : 0,
                "roughnessFactor" : 0.4000000059604645
            }
        },
        {
            "doubleSided" : true,
            "name" : "Black Metal.001",
            "pbrMetallicRoughness" : {
                "baseColorFactor" : [
                    0,
                    0,
                    0,
                    1
                ],
                "metallicFactor" : 0,
                "roughnessFactor" : 0.5
            }
        },
        {
            "doubleSided" : true,
            "emissiveFactor" : [
                1,
                1,
                1
            ],
            "name" : "White Light.001",
            "pbrMetallicRoughness" : {}
        },
        {
            "doubleSided" : true,
            "name" : "Material.001",
            "pbrMetallicRoughness" : {
                "baseColorFactor" : [
                    0,
                    0,
                    0,
                    1
                ],
                "metallicFactor" : 0,
                "roughnessFactor" : 0.4000000059604645
            }
        }
    ],
    "meshes" : [
        {
            "name" : "Cube.001",
            "primitives" : [
                {
                    "attributes" : {
                        "POSITION" : 0,
                        "NORMAL" : 1,
                        "TEXCOORD_0" : 2
                    },
                    "indices" : 3,
                    "material" : 0
                },
                {
                    "attributes" : {
                        "POSITION" : 4,
                        "NORMAL" : 5,
                        "TEXCOORD_0" : 6
                    },
                    "indices" : 7,
                    "material" : 1
                },
                {
                    "attributes" : {
                        "POSITION" : 8,
                        "NORMAL" : 9,
                        "TEXCOORD_0" : 10
                    },
                    "indices" : 11,
                    "material" : 2
                }
            ]
        },
        {
            "name" : "Text",
            "primitives" : [
                {
                    "attributes" : {
                        "POSITION" : 12,
                        "NORMAL" : 13,
                        "TEXCOORD_0" : 14
                    },
                    "indices" : 15,
                    "material" : 3
                }
            ]
        }
    ],
    "accessors" : [
        {
            "bufferView" : 0,
            "componentType" : 5126,
            "count" : 2540,
            "max" : [
                0.08457261323928833,
                0.11778207868337631,
                0.008359109051525593
            ],
            "min" : [
                -0.0854320377111435,
                -0.15616610646247864,
                -0.19447940587997437
            ],
            "type" : "VEC3"
        },
        {
            "bufferView" : 1,
            "componentType" : 5126,
            "count" : 2540,
            "type" : "VEC3"
        },
        {
            "bufferView" : 2,
            "componentType" : 5126,
            "count" : 2540,
            "type" : "VEC2"
        },
        {
            "bufferView" : 3,
            "componentType" : 5123,
            "count" : 8082,
            "type" : "SCALAR"
        },
        {
            "bufferView" : 4,
            "componentType" : 5126,
            "count" : 1584,
            "max" : [
                0.08457261323928833,
                0.11778207868337631,
                0.009873681701719761
            ],
            "min" : [
                -0.0854320377111435,
                -0.15616610646247864,
                -0.19447940587997437
            ],
            "type" : "VEC3"
        },
        {
            "bufferView" : 5,
            "componentType" : 5126,
            "count" : 1584,
            "type" : "VEC3"
        },
        {
            "bufferView" : 6,
            "componentType" : 5126,
            "count" : 1584,
            "type" : "VEC2"
        },
        {
            "bufferView" : 7,
            "componentType" : 5123,
            "count" : 4677,
            "type" : "SCALAR"
        },
        {
            "bufferView" : 8,
            "componentType" : 5126,
            "count" : 2765,
            "max" : [
                0.04976678267121315,
                0.08158942312002182,
                0.010118593461811543
            ],
            "min" : [
                -0.04916052147746086,
                -0.1457928717136383,
                -0.02487291768193245
            ],
            "type" : "VEC3"
        },
        {
            "bufferView" : 9,
            "componentType" : 5126,
            "count" : 2765,
            "type" : "VEC3"
        },
        {
            "bufferView" : 10,
            "componentType" : 5126,
            "count" : 2765,
            "type" : "VEC2"
        },
        {
            "bufferView" : 11,
            "componentType" : 5123,
            "count" : 4710,
            "type" : "SCALAR"
        },
        {
            "bufferView" : 12,
            "componentType" : 5126,
            "count" : 3722,
            "max" : [
                4.185000419616699,
                0.03999999910593033,
                0.009000000543892384
            ],
            "min" : [
                0,
                -0.03999999910593033,
                -0.6820000410079956
            ],
            "type" : "VEC3"
        },
        {
            "bufferView" : 13,
            "componentType" : 5126,
            "count" : 3722,
            "type" : "VEC3"
        },
        {
            "bufferView" : 14,
            "componentType" : 5126,
            "count" : 3722,
            "type" : "VEC2"
        },
        {
            "bufferView" : 15,
            "componentType" : 5123,
            "count" : 6744,
            "type" : "SCALAR"
        }
    ],
    "bufferViews" : [
        {
            "buffer" : 0,
            "byteLength" : 30480,
            "byteOffset" : 0
        },
        {
            "buffer" : 0,
            "byteLength" : 30480,
            "byteOffset" : 30480
        },
        {
            "buffer" : 0,
            "byteLength" : 20320,
            "byteOffset" : 60960
        },
        {
            "buffer" : 0,
            "byteLength" : 16164,
            "byteOffset" : 81280
        },
        {
            "buffer" : 0,
            "byteLength" : 19008,
            "byteOffset" : 97444
        },
        {
            "buffer" : 0,
            "byteLength" : 19008,
            "byteOffset" : 116452
        },
        {
            "buffer" : 0,
            "byteLength" : 12672,
            "byteOffset" : 135460
        },
        {
            "buffer" : 0,
            "byteLength" : 9354,
            "byteOffset" : 148132
        },
        {
            "buffer" : 0,
            "byteLength" : 33180,
            "byteOffset" : 157488
        },
        {
            "buffer" : 0,
            "byteLength" : 33180,
            "byteOffset" : 190668
        },
        {
            "buffer" : 0,
            "byteLength" : 22120,
            "byteOffset" : 223848
        },
        {
            "buffer" : 0,
            "byteLength" : 9420,
            "byteOffset" : 245968
        },
        {
            "buffer" : 0,
            "byteLength" : 44664,
            "byteOffset" : 255388
        },
        {
            "buffer" : 0,
            "byteLength" : 44664,
            "byteOffset" : 300052
        },
        {
            "buffer" : 0,
            "byteLength" : 29776,
            "byteOffset" : 344716
        },
        {
            "buffer" : 0,
            "byteLength" : 13488,
            "byteOffset" : 374492
        }
    ],
    "buffers" : [
        {
            "byteLength" : 387980,
            "uri" : "data:application/octet-stream;base64,"
        }
    ]
}
